<svg xmlns="http://www.w3.org/2000/svg" width="1200" height="300" viewBox="0 0 1200 300">
  <defs>
    <!-- ブランドカラーB グラデーション: #c06299 → #a51e6d -->
    <linearGradient id="bgGrad" x1="0%" y1="0%" x2="100%" y2="100%">
      <stop offset="0%"   stop-color="#c06299"/>
      <stop offset="100%" stop-color="#a51e6d"/>
    </linearGradient>
    <!-- 装飾用サークルのクリップ -->
    <clipPath id="bannerClip">
      <rect width="1200" height="300" rx="0" ry="0"/>
    </clipPath>
  </defs>

  <!-- 背景 -->
  <rect width="1200" height="300" fill="url(#bgGrad)"/>

  <!-- 装飾：右上の大きな円 -->
  <circle cx="1100" cy="-40" r="260" fill="rgba(255,255,255,0.06)" clip-path="url(#bannerClip)"/>
  <!-- 装飾：右下の中円 -->
  <circle cx="980" cy="330" r="180" fill="rgba(255,255,255,0.05)" clip-path="url(#bannerClip)"/>
  <!-- 装飾：左下の小円 -->
  <circle cx="60" cy="280" r="120" fill="rgba(255,255,255,0.04)" clip-path="url(#bannerClip)"/>

  <!-- 左端のアクセントライン -->
  <rect x="0" y="0" width="6" height="300" fill="rgba(255,255,255,0.35)"/>

  <!-- SHIFT AI ロゴテキスト（左上・小さめ） -->
  <text
    x="40" y="52"
    font-family="'Noto Sans JP', 'Hiragino Sans', sans-serif"
    font-size="14"
    font-weight="700"
    fill="rgba(255,255,255,0.80)"
    letter-spacing="2"
  >SHIFT AI</text>

  <!-- セパレーター -->
  <line x1="40" y1="64" x2="180" y2="64" stroke="rgba(255,255,255,0.25)" stroke-width="1"/>

  <!-- メインテキスト -->
  <text
    x="40" y="145"
    font-family="'Noto Sans JP', 'Hiragino Sans', sans-serif"
    font-size="44"
    font-weight="700"
    fill="#ffffff"
    letter-spacing="1"
  >SHIFT AI Discord</text>
  <text
    x="40" y="200"
    font-family="'Noto Sans JP', 'Hiragino Sans', sans-serif"
    font-size="44"
    font-weight="700"
    fill="#ffffff"
    letter-spacing="1"
  >セットアップガイド</text>

  <!-- サブテキスト -->
  <text
    x="40" y="237"
    font-family="'Noto Sans JP', 'Hiragino Sans', sans-serif"
    font-size="16"
    font-weight="400"
    fill="rgba(255,255,255,0.85)"
    letter-spacing="0.5"
  >このガイドに沿って順番に進めると、約15分でセットアップが完了します</text>

  <!-- 所要時間バッジ -->
  <rect x="40" y="255" width="148" height="32" rx="16" fill="rgba(255,255,255,0.18)"/>
  <text
    x="114" y="276"
    font-family="'Noto Sans JP', 'Hiragino Sans', sans-serif"
    font-size="13"
    font-weight="700"
    fill="#ffffff"
    text-anchor="middle"
    letter-spacing="0.5"
  >⏱ 約15分で完了</text>

  <!-- Discord アイコン：背景の光彩 -->
  <circle cx="1060" cy="150" r="106" fill="rgba(255,255,255,0.14)"/>

  <!-- Discord アイコン：ブランドカラーの角丸四角 -->
  <rect x="975" y="63" width="170" height="170" rx="34" fill="#5865F2"/>

  <!-- Discord ロゴ（SVG パス・白） -->
  <g transform="translate(975, 82) scale(0.664)">
    <path d="M216.856339,16.5966031 C200.285002,8.84328665 182.566144,3.2084988 164.041564,0 C161.766523,4.11318106 159.108624,9.64549908 157.276099,14.0464379 C137.583995,11.0849896 118.072967,11.0849896 98.7430163,14.0464379 C96.9108417,9.64549908 94.1925838,4.11318106 91.8971895,0 C73.3526068,3.2084988 55.6133949,8.86399117 39.0420583,16.6376612 C5.61752293,67.146514 -3.4433191,116.400813 1.08711069,164.955721 C23.2560196,181.510915 44.7403634,191.567697 65.8621325,198.148576 C71.0772151,190.971126 75.7283628,183.341335 79.7352139,175.300261 C72.104019,172.400575 64.7949724,168.822202 57.8887866,164.667963 C59.7209612,163.310589 61.5131304,161.891452 63.2445898,160.431257 C105.36741,180.133187 151.134928,180.133187 192.754523,160.431257 C194.506336,161.891452 196.298154,163.310589 198.110326,164.667963 C191.183787,168.842556 183.854737,172.420929 176.223542,175.320965 C180.230393,183.341335 184.861538,190.991831 190.096624,198.16893 C211.238746,191.588051 232.743023,181.531619 254.911949,164.955721 C260.227747,108.668201 245.831087,59.8662432 216.856339,16.5966031 Z M85.4738752,135.09489 C72.8290281,135.09489 62.4592217,123.290155 62.4592217,108.914901 C62.4592217,94.5396472 72.607595,82.7145587 85.4738752,82.7145587 C98.3405064,82.7145587 108.709962,94.5189427 108.488529,108.914901 C108.508531,123.290155 98.3405064,135.09489 85.4738752,135.09489 Z M170.525237,135.09489 C157.88039,135.09489 147.510584,123.290155 147.510584,108.914901 C147.510584,94.5396472 157.658606,82.7145587 170.525237,82.7145587 C183.391518,82.7145587 193.761324,94.5189427 193.539891,108.914901 C193.539891,123.290155 183.391518,135.09489 170.525237,135.09489 Z" fill="white" fill-rule="nonzero"/>
  </g>

</svg>
